<?xml version="1.0" standalone="no"?>
<svg
  width="600"
  height="600"
  viewBox="0 0 600 600"
  xmlns="http://www.w3.org/2000/svg"
>
  <g transform="translate(300,300)">
    <path d="M158.4,-175.1C198.1,-155.5,218.2,-98.7,214.5,-48.4C210.8,2,183.4,46,152.2,76.5C121,107,86.2,124,45.6,148.9C5.1,173.8,-41,206.7,-79.8,200.7C-118.5,194.6,-149.7,149.5,-172.6,103C-195.5,56.5,-210,8.4,-196.9,-29.3C-183.8,-67,-143,-94.4,-105.6,-114.5C-68.1,-134.5,-34.1,-147.3,12.6,-162.3C59.4,-177.4,118.7,-194.8,158.4,-175.1Z" fill="#ba7ee7" />
  </g>
</svg>
  