<?xml version="1.0" standalone="no"?>
<svg
  width="600"
  height="600"
  viewBox="0 0 600 600"
  xmlns="http://www.w3.org/2000/svg"
>
  <g transform="translate(300,300)">
    <path d="M84.4,-121.8C118.6,-91.3,162,-79,193.9,-47.3C225.7,-15.7,246,35.4,227.7,68.5C209.5,101.6,152.6,116.8,108.3,140.5C63.9,164.2,31.9,196.6,-6,204.8C-43.9,213.1,-87.8,197.1,-106.8,165.2C-125.8,133.2,-120,85.1,-129.1,44.8C-138.2,4.5,-162.3,-28,-158.5,-55.1C-154.6,-82.2,-122.9,-103.8,-91.8,-135.4C-60.7,-166.9,-30.4,-208.5,-2.6,-204.8C25.1,-201.2,50.2,-152.4,84.4,-121.8Z" fill="#FFB4BC" />
  </g>
</svg>
  