<svg width="170" height="170" viewBox="0 0 170 170" fill="none" xmlns="http://www.w3.org/2000/svg">
<path d="M87.3455 138.211C86.7279 137.593 85.8713 137.238 84.998 137.238C84.1248 137.238 83.2682 137.593 82.6509 138.211C82.0333 138.829 81.6777 139.685 81.6777 140.559C81.6777 141.432 82.033 142.288 82.6509 142.906C83.2682 143.523 84.1248 143.879 84.998 143.879C85.8713 143.879 86.7279 143.524 87.3455 142.906C87.9664 142.285 88.3183 141.432 88.3183 140.559C88.3183 139.685 87.9664 138.829 87.3455 138.211Z" fill="#150320"/>
<path d="M162.031 86.8783V44.1603C162.031 42.9531 161.375 41.8411 160.32 41.256L86.6087 0.416363C85.607 -0.138791 84.3911 -0.138459 83.3903 0.416363L9.6797 41.256C8.62385 41.8411 7.96875 42.9531 7.96875 44.1603V125.84C7.96875 127.047 8.62418 128.159 9.6797 128.744L46.553 149.174C46.5583 149.177 46.5632 149.179 46.5682 149.182L83.3903 169.584C83.891 169.861 84.4452 170 84.9997 170C85.5539 170 86.1083 169.861 86.609 169.584L123.432 149.182C123.437 149.18 123.441 149.177 123.445 149.175L160.32 128.744C161.376 128.159 162.031 127.047 162.031 125.84V86.8929C162.031 86.8876 162.031 86.8829 162.031 86.8783ZM84.9994 7.1164L115.957 24.2684L85.7308 40.7763L55.3527 23.5422L84.9994 7.1164ZM55.0044 65.1237L85.6694 48.3761L115.502 65.3003L85.0206 82.1887L55.0044 65.1237ZM81.6791 87.9278V121.451L51.4643 104.31V70.7499L81.6791 87.9278ZM44.8237 140.624L14.609 123.883V91.0353L44.8237 108.177V140.624ZM44.8237 100.542L14.609 83.4009V49.7969L44.8237 66.9747V100.542ZM18.1352 44.1626L48.5445 27.3144L78.8741 44.5209L48.2164 61.2645L18.1352 44.1626ZM118.534 144.303L88.3197 161.043V151.303C88.3197 149.47 86.8328 147.983 84.9994 147.983C83.1659 147.983 81.6791 149.47 81.6791 151.303V161.043L51.4643 144.303V111.944L83.3608 130.04C83.8685 130.328 84.4336 130.472 84.9994 130.472C85.5469 130.472 86.0947 130.337 86.5908 130.066L118.534 112.62V144.303ZM118.534 105.054L88.3197 121.556V87.9521L118.534 71.2115V105.054ZM122.31 61.5278L92.5262 44.6308L122.834 28.0781L152.758 44.658L122.31 61.5278ZM155.39 123.883L125.175 140.624V108.993L155.39 92.4916V123.883ZM155.39 84.9253L125.175 101.427V67.5322L155.39 50.7916V84.9253Z" fill="#621C97"/>
</svg>
