<svg width="121" height="121" viewBox="0 0 121 121" fill="none" xmlns="http://www.w3.org/2000/svg">
<path d="M52.1339 110.821C51.6946 111.261 51.4438 111.871 51.4438 112.492C51.4438 113.114 51.6946 113.723 52.1339 114.163C52.5759 114.603 53.1832 114.855 53.8071 114.855C54.4287 114.855 55.0384 114.603 55.478 114.163C55.9173 113.723 56.1704 113.114 56.1704 112.492C56.1704 111.871 55.9175 111.261 55.478 110.821C55.0384 110.382 54.4287 110.129 53.8071 110.129C53.1832 110.129 52.5759 110.382 52.1339 110.821Z" fill="#621C97"/>
<path d="M12.4689 7.60339C12.1036 8.48654 12.3054 9.50299 12.9813 10.1789L63.3022 60.5L12.9813 110.821C12.3054 111.497 12.1033 112.514 12.4689 113.397C12.8348 114.28 13.6964 114.855 14.6524 114.855H44.1934C45.4984 114.855 46.5567 113.797 46.5567 112.492C46.5567 111.187 45.4984 110.129 44.1934 110.129H20.358L66.6446 63.8422L112.931 110.129H64.0449C62.7399 110.129 61.6817 111.187 61.6817 112.492C61.6817 113.797 62.7399 114.855 64.0449 114.855H118.637C118.674 114.855 118.703 114.852 118.729 114.848C119.004 114.837 119.278 114.784 119.541 114.675C120.424 114.31 121 113.448 121 112.492V8.50781C121 7.20258 119.942 6.14453 118.637 6.14453H66.6457C66.645 6.14453 66.6441 6.14453 66.6434 6.14453H14.6524C13.6964 6.14453 12.8348 6.72047 12.4689 7.60339ZM43.9908 34.5039L66.6446 11.8502L89.2982 34.5039L66.6446 57.1578L43.9908 34.5039ZM69.9869 60.5L90.2707 40.2162V80.7838L69.9869 60.5ZM116.273 106.787L94.9973 85.5104V40.2027L116.273 61.4791V106.787ZM116.273 10.8711V54.7943L72.3502 10.8711H116.273ZM60.9389 10.8711L40.6485 31.1615L20.358 10.8711H60.9389Z" fill="#621C97"/>
<path d="M1.45885 6.32459C0.575932 6.69019 0 7.55208 0 8.50779L0 112.492C0 113.448 0.575932 114.31 1.45885 114.676C2.34201 115.041 3.35846 114.839 4.03436 114.163L56.0265 62.1711C56.4879 61.7095 56.7188 61.1047 56.7188 60.5C56.7188 59.8952 56.4879 59.2902 56.0265 58.8289L4.03436 6.83671C3.35846 6.16081 2.34201 5.95876 1.45885 6.32459ZM51.0131 60.5L14.6523 96.861V79.4318C14.6523 78.1265 13.5941 77.0685 12.2891 77.0685C10.9841 77.0685 9.92578 78.1265 9.92578 79.4318L9.92578 101.588L4.72656 106.787L4.72656 14.2132L51.0131 60.5Z" fill="#621C97"/>
<path d="M10.6182 68.1973C10.1787 68.6392 9.92578 69.2466 9.92578 69.8705C9.92578 70.492 10.1784 71.1018 10.6182 71.5413C11.058 71.9809 11.6675 72.2338 12.2891 72.2338C12.9106 72.2338 13.5203 71.9809 13.9597 71.5413C14.3995 71.0994 14.6523 70.492 14.6523 69.8705C14.6523 69.2466 14.3995 68.6392 13.9597 68.1973C13.5203 67.7577 12.9106 67.5072 12.2891 67.5072C11.6675 67.5072 11.0578 67.7577 10.6182 68.1973Z" fill="#621C97"/>
</svg>
