<?xml version="1.0" encoding="iso-8859-1"?>
<!-- Generator: Adobe Illustrator 19.0.0, SVG Export Plug-In . SVG Version: 6.00 Build 0)  -->
<svg version="1.1" id="Capa_1" xmlns="http://www.w3.org/2000/svg" xmlns:xlink="http://www.w3.org/1999/xlink" x="0px" y="0px"
	 viewBox="0 0 512 512" style="enable-background:new 0 0 512 512;" xml:space="preserve">
<g>
	<g>
		<path d="M43.07,220.6c-1.86-1.859-4.44-2.92-7.07-2.92s-5.21,1.061-7.07,2.92c-1.86,1.87-2.93,4.44-2.93,7.08
			c0,2.63,1.07,5.21,2.93,7.07c1.86,1.859,4.44,2.93,7.07,2.93s5.21-1.07,7.07-2.93s2.93-4.44,2.93-7.07
			C46,225.04,44.93,222.47,43.07,220.6z"/>
	</g>
</g>
<g>
	<g>
		<path d="M479.827,52.761c-3.737-1.546-8.038-0.692-10.898,2.168L256,267.857L43.071,54.929c-2.86-2.86-7.162-3.715-10.898-2.168
			C28.437,54.309,26,57.955,26,62v125c0,5.522,4.477,10,10,10s10-4.478,10-10V86.143L241.858,282L46,477.857V271
			c0-5.522-4.477-10-10-10s-10,4.478-10,10v231c0,0.157,0.013,0.282,0.033,0.392c0.045,1.16,0.268,2.322,0.729,3.435
			C28.309,509.563,31.956,512,36,512h440c5.523,0,10-4.478,10-10V282.005c0-0.003,0-0.007,0-0.01V62
			C486,57.955,483.563,54.309,479.827,52.761z M366,186.143L461.857,282L366,377.857L270.142,282L366,186.143z M256,296.143
			l85.829,85.829H170.171L256,296.143z M60.143,492l90.028-90.028h191.715L251.857,492H60.143z M466,492H280.143L466,306.143V492z
			 M466,257.857L380.143,172L466,86.143V257.857z"/>
	</g>
</g>
<g>
	<g>
		<path d="M485.238,6.173C483.691,2.437,480.044,0,476,0H36c-4.044,0-7.691,2.437-9.239,6.173
			c-1.548,3.737-0.692,8.038,2.167,10.898l220.001,220c1.953,1.952,4.512,2.929,7.071,2.929s5.119-0.977,7.071-2.929l220-220
			C485.931,14.211,486.786,9.91,485.238,6.173z M256,215.857L102.142,62h73.75c5.523,0,10-4.478,10-10s-4.477-10-10-10h-93.75
			l-22-22h391.716L256,215.857z"/>
	</g>
</g>
<g>
	<g>
		<path d="M223.43,44.93c-1.87-1.86-4.44-2.93-7.08-2.93c-2.63,0-5.21,1.069-7.07,2.93c-1.86,1.861-2.93,4.44-2.93,7.07
			s1.07,5.21,2.93,7.069c1.87,1.861,4.44,2.931,7.07,2.931c2.64,0,5.21-1.07,7.08-2.931c1.86-1.859,2.92-4.439,2.92-7.069
			S225.29,46.79,223.43,44.93z"/>
	</g>
</g>
<g>
</g>
<g>
</g>
<g>
</g>
<g>
</g>
<g>
</g>
<g>
</g>
<g>
</g>
<g>
</g>
<g>
</g>
<g>
</g>
<g>
</g>
<g>
</g>
<g>
</g>
<g>
</g>
<g>
</g>
</svg>
