<svg width="573" height="178" viewBox="0 0 573 178" fill="none" xmlns="http://www.w3.org/2000/svg">
<g clip-path="url(#clip0)">
<path d="M73.9961 163.616C73.3752 164.237 73.0209 165.099 73.0209 165.977C73.0209 166.856 73.3752 167.717 73.9961 168.339C74.6207 168.96 75.479 169.317 76.3607 169.317C77.2391 169.317 78.1008 168.96 78.722 168.339C79.3429 167.717 79.7006 166.856 79.7006 165.977C79.7006 165.099 79.3432 164.237 78.722 163.616C78.1008 162.995 77.2391 162.638 76.3607 162.638C75.479 162.638 74.6207 162.995 73.9961 163.616Z" fill="#FF7676" fill-opacity="0.45"/>
<path d="M17.9406 17.7462C17.4242 18.9943 17.7095 20.4307 18.6647 21.3859L89.7793 92.5009L18.6647 163.616C17.7095 164.571 17.4239 166.008 17.9406 167.256C18.4576 168.503 19.6753 169.317 21.0263 169.317H62.7743C64.6186 169.317 66.1142 167.822 66.1142 165.977C66.1142 164.133 64.6186 162.638 62.7743 162.638H29.0897L94.5028 97.2241L159.916 162.638L90.829 162.638C88.9847 162.638 87.4892 164.133 87.4892 165.977C87.4892 167.822 88.9847 169.317 90.829 169.317L167.979 169.317C168.032 169.317 168.074 169.313 168.11 169.306C168.498 169.291 168.886 169.217 169.258 169.063C170.505 168.546 171.319 167.328 171.319 165.977L171.319 19.0243C171.319 17.1797 169.824 15.6845 167.979 15.6845L94.5045 15.6845C94.5035 15.6845 94.5022 15.6845 94.5012 15.6845H21.0263C19.6753 15.6845 18.4576 16.4984 17.9406 17.7462ZM62.4881 55.7626L94.5028 23.7479L126.518 55.7626L94.5028 87.7777L62.4881 55.7626ZM99.2264 92.5009L127.892 63.8353L127.892 121.166L99.2264 92.5009ZM164.64 157.914L134.572 127.846V63.8163L164.64 93.8846V157.914ZM164.64 22.3642L164.64 84.4375L102.566 22.3642L164.64 22.3642ZM86.4395 22.3642L57.7646 51.039L29.0897 22.3642H86.4395Z" fill="#FF7676" fill-opacity="0.45"/>
<path d="M2.3809 15.9389C1.13313 16.4556 0.319214 17.6737 0.319214 19.0243L0.319214 165.977C0.319214 167.328 1.13313 168.546 2.3809 169.063C3.629 169.58 5.06547 169.294 6.02066 168.339L79.4972 94.8625C80.1492 94.2102 80.4755 93.3555 80.4755 92.5009C80.4755 91.6462 80.1492 90.7912 79.4972 90.1393L6.02066 16.6627C5.06547 15.7075 3.629 15.4219 2.3809 15.9389ZM72.4121 92.5009L21.0262 143.887V119.256C21.0262 117.411 19.5307 115.916 17.6864 115.916C15.8421 115.916 14.3466 117.411 14.3466 119.256L14.3466 150.567L6.9989 157.914L6.9989 27.0873L72.4121 92.5009Z" fill="#FF7676" fill-opacity="0.45"/>
<path d="M15.3251 103.379C14.7039 104.003 14.3466 104.862 14.3466 105.743C14.3466 106.622 14.7036 107.483 15.3251 108.105C15.9467 108.726 16.808 109.083 17.6864 109.083C18.5648 109.083 19.4265 108.726 20.0473 108.105C20.6689 107.48 21.0262 106.622 21.0262 105.743C21.0262 104.862 20.6689 104.003 20.0473 103.379C19.4265 102.758 18.5648 102.404 17.6864 102.404C16.808 102.404 15.9463 102.758 15.3251 103.379Z" fill="#FF7676" fill-opacity="0.45"/>
</g>
<path d="M79.104 139V70.84H124.896V82.456H92.352V100.024H119.424V110.776H92.352V139H79.104ZM132.885 68.92H145.749V122.872C145.749 124.728 146.197 126.168 147.093 127.192C147.989 128.216 149.269 128.728 150.933 128.728C151.701 128.728 152.533 128.6 153.429 128.344C154.389 128.088 155.285 127.768 156.117 127.384L157.845 137.176C156.117 138.008 154.101 138.648 151.797 139.096C149.493 139.544 147.413 139.768 145.557 139.768C141.525 139.768 138.389 138.712 136.149 136.6C133.973 134.424 132.885 131.352 132.885 127.384V68.92ZM177.178 139.96C174.746 139.96 172.474 139.576 170.362 138.808C168.25 137.976 166.426 136.856 164.89 135.448C163.354 133.976 162.138 132.28 161.242 130.36C160.41 128.44 159.994 126.328 159.994 124.024C159.994 121.656 160.506 119.48 161.53 117.496C162.618 115.448 164.09 113.72 165.946 112.312C167.866 110.904 170.138 109.816 172.762 109.048C175.386 108.216 178.266 107.8 181.402 107.8C183.642 107.8 185.818 107.992 187.93 108.376C190.106 108.76 192.026 109.304 193.69 110.008V107.128C193.69 103.8 192.73 101.24 190.81 99.448C188.954 97.656 186.17 96.76 182.458 96.76C179.77 96.76 177.146 97.24 174.586 98.2C172.026 99.16 169.402 100.568 166.714 102.424L162.778 94.264C169.242 89.976 176.218 87.832 183.706 87.832C190.938 87.832 196.538 89.624 200.506 93.208C204.538 96.728 206.554 101.848 206.554 108.568V124.216C206.554 125.56 206.778 126.52 207.226 127.096C207.738 127.672 208.538 127.992 209.626 128.056V139C207.45 139.448 205.562 139.672 203.962 139.672C201.53 139.672 199.642 139.128 198.298 138.04C197.018 136.952 196.218 135.512 195.898 133.72L195.61 130.936C193.37 133.88 190.65 136.12 187.45 137.656C184.25 139.192 180.826 139.96 177.178 139.96ZM180.826 130.552C183.002 130.552 185.05 130.168 186.97 129.4C188.954 128.632 190.49 127.608 191.578 126.328C192.986 125.24 193.69 124.024 193.69 122.68V116.92C192.154 116.344 190.49 115.896 188.698 115.576C186.906 115.192 185.178 115 183.514 115C180.186 115 177.466 115.768 175.354 117.304C173.242 118.776 172.186 120.664 172.186 122.968C172.186 125.144 173.018 126.968 174.682 128.44C176.346 129.848 178.394 130.552 180.826 130.552ZM237.583 139.96C233.359 139.96 229.231 139.288 225.199 137.944C221.167 136.6 217.711 134.68 214.831 132.184L219.631 124.12C222.703 126.296 225.679 127.96 228.559 129.112C231.503 130.2 234.415 130.744 237.295 130.744C239.855 130.744 241.871 130.264 243.343 129.304C244.815 128.344 245.551 126.968 245.551 125.176C245.551 123.384 244.687 122.072 242.959 121.24C241.231 120.408 238.415 119.448 234.511 118.36C231.247 117.464 228.463 116.6 226.159 115.768C223.855 114.936 221.999 114.008 220.591 112.984C219.183 111.896 218.159 110.68 217.519 109.336C216.879 107.928 216.559 106.264 216.559 104.344C216.559 101.784 217.039 99.48 217.999 97.432C219.023 95.384 220.431 93.656 222.223 92.248C224.015 90.776 226.095 89.656 228.463 88.888C230.895 88.12 233.519 87.736 236.335 87.736C240.111 87.736 243.631 88.28 246.895 89.368C250.223 90.456 253.263 92.216 256.015 94.648L250.831 102.424C248.271 100.504 245.775 99.096 243.343 98.2C240.975 97.304 238.607 96.856 236.239 96.856C234.063 96.856 232.239 97.304 230.767 98.2C229.295 99.096 228.559 100.536 228.559 102.52C228.559 103.416 228.719 104.152 229.039 104.728C229.423 105.304 229.999 105.816 230.767 106.264C231.535 106.712 232.527 107.16 233.743 107.608C235.023 107.992 236.591 108.408 238.447 108.856C241.903 109.752 244.847 110.648 247.279 111.544C249.775 112.44 251.791 113.464 253.327 114.616C254.927 115.768 256.079 117.112 256.783 118.648C257.551 120.12 257.935 121.912 257.935 124.024C257.935 128.952 256.111 132.856 252.463 135.736C248.815 138.552 243.855 139.96 237.583 139.96ZM313.046 139H300.182V110.776C300.182 106.808 299.446 103.896 297.974 102.04C296.502 100.12 294.422 99.16 291.734 99.16C290.582 99.16 289.366 99.416 288.086 99.928C286.806 100.44 285.59 101.176 284.438 102.136C283.286 103.032 282.23 104.12 281.27 105.4C280.31 106.68 279.606 108.088 279.158 109.624V139H266.294V68.92H279.158V98.008C281.014 94.744 283.51 92.248 286.646 90.52C289.846 88.728 293.366 87.832 297.206 87.832C300.47 87.832 303.126 88.408 305.174 89.56C307.222 90.648 308.822 92.12 309.974 93.976C311.126 95.832 311.926 97.944 312.374 100.312C312.822 102.68 313.046 105.112 313.046 107.608V139ZM321.063 113.848C321.063 110.328 321.671 107 322.887 103.864C324.103 100.728 325.863 97.976 328.167 95.608C330.471 93.24 333.255 91.352 336.519 89.944C339.783 88.536 343.463 87.832 347.559 87.832C353.063 87.832 357.735 89.016 361.575 91.384C365.479 93.752 368.391 96.856 370.311 100.696L357.735 104.536C356.647 102.68 355.207 101.272 353.415 100.312C351.623 99.288 349.639 98.776 347.463 98.776C345.607 98.776 343.879 99.16 342.279 99.928C340.679 100.632 339.271 101.656 338.055 103C336.903 104.28 335.975 105.848 335.271 107.704C334.631 109.56 334.311 111.608 334.311 113.848C334.311 116.088 334.663 118.136 335.367 119.992C336.071 121.848 336.999 123.448 338.151 124.792C339.367 126.136 340.775 127.192 342.375 127.96C343.975 128.664 345.671 129.016 347.463 129.016C349.767 129.016 351.879 128.44 353.799 127.288C355.783 126.136 357.159 124.728 357.927 123.064L370.503 126.904C368.775 130.744 365.927 133.88 361.959 136.312C357.991 138.744 353.223 139.96 347.655 139.96C343.559 139.96 339.879 139.256 336.615 137.848C333.351 136.44 330.567 134.552 328.263 132.184C325.959 129.752 324.167 126.968 322.887 123.832C321.671 120.632 321.063 117.304 321.063 113.848ZM393.779 139.96C388.595 139.96 384.659 138.296 381.971 134.968C379.283 131.64 377.939 126.712 377.939 120.184V88.696H390.803V117.4C390.803 125.144 393.587 129.016 399.155 129.016C401.651 129.016 404.051 128.28 406.355 126.808C408.723 125.272 410.643 122.968 412.115 119.896V88.696H424.979V124.216C424.979 125.56 425.203 126.52 425.651 127.096C426.163 127.672 426.963 127.992 428.051 128.056V139C426.771 139.256 425.683 139.416 424.787 139.48C423.955 139.544 423.187 139.576 422.483 139.576C420.179 139.576 418.291 139.064 416.819 138.04C415.411 136.952 414.579 135.48 414.323 133.624L414.035 129.592C411.795 133.048 408.915 135.64 405.395 137.368C401.875 139.096 398.003 139.96 393.779 139.96ZM466.37 139.96C462.53 139.96 459.106 139.096 456.098 137.368C453.09 135.64 450.722 133.272 448.994 130.264V139H437.762V68.92H450.626V97.528C452.418 94.456 454.754 92.088 457.634 90.424C460.578 88.696 464.002 87.832 467.906 87.832C471.17 87.832 474.146 88.536 476.834 89.944C479.522 91.352 481.826 93.24 483.746 95.608C485.73 97.976 487.234 100.76 488.258 103.96C489.346 107.16 489.89 110.52 489.89 114.04C489.89 117.688 489.282 121.08 488.066 124.216C486.914 127.352 485.282 130.104 483.17 132.472C481.058 134.776 478.562 136.6 475.682 137.944C472.802 139.288 469.698 139.96 466.37 139.96ZM462.818 129.016C464.866 129.016 466.754 128.632 468.482 127.864C470.21 127.032 471.682 125.944 472.898 124.6C474.114 123.256 475.042 121.688 475.682 119.896C476.386 118.104 476.738 116.184 476.738 114.136C476.738 112.088 476.418 110.136 475.778 108.28C475.138 106.424 474.21 104.792 472.994 103.384C471.842 101.976 470.466 100.856 468.866 100.024C467.266 99.192 465.506 98.776 463.586 98.776C460.706 98.776 458.114 99.736 455.81 101.656C453.57 103.512 451.842 105.816 450.626 108.568V120.568C451.074 121.848 451.714 123 452.546 124.024C453.442 125.048 454.434 125.944 455.522 126.712C456.61 127.416 457.794 127.992 459.074 128.44C460.354 128.824 461.602 129.016 462.818 129.016ZM521.934 139.96C517.902 139.96 514.254 139.288 510.99 137.944C507.726 136.536 504.942 134.648 502.638 132.28C500.334 129.912 498.542 127.16 497.262 124.024C496.046 120.888 495.438 117.592 495.438 114.136C495.438 110.552 496.046 107.192 497.262 104.056C498.478 100.856 500.238 98.072 502.542 95.704C504.846 93.272 507.63 91.352 510.894 89.944C514.222 88.536 517.934 87.832 522.03 87.832C526.126 87.832 529.774 88.536 532.974 89.944C536.238 91.352 538.99 93.24 541.23 95.608C543.534 97.976 545.262 100.728 546.414 103.864C547.63 107 548.238 110.264 548.238 113.656C548.238 114.488 548.206 115.288 548.142 116.056C548.142 116.824 548.078 117.464 547.95 117.976H509.07C509.262 119.96 509.742 121.72 510.51 123.256C511.278 124.792 512.27 126.104 513.486 127.192C514.702 128.28 516.078 129.112 517.614 129.688C519.15 130.264 520.75 130.552 522.414 130.552C524.974 130.552 527.374 129.944 529.614 128.728C531.918 127.448 533.486 125.784 534.318 123.736L545.358 126.808C543.502 130.648 540.526 133.816 536.43 136.312C532.398 138.744 527.566 139.96 521.934 139.96ZM534.99 109.624C534.67 105.848 533.262 102.84 530.766 100.6C528.334 98.296 525.358 97.144 521.838 97.144C520.11 97.144 518.478 97.464 516.942 98.104C515.47 98.68 514.158 99.512 513.006 100.6C511.854 101.688 510.894 103 510.126 104.536C509.422 106.072 509.006 107.768 508.878 109.624H534.99Z" fill="#ffffff"/>
<defs>
<clipPath id="clip0">
<rect x="0.319214" y="178.001" width="171" height="171" transform="rotate(-90 0.319214 178.001)" fill="white"/>
</clipPath>
</defs>
</svg>
