<svg width="477" height="170" viewBox="0 0 477 170" fill="none" xmlns="http://www.w3.org/2000/svg">
<path d="M87.3455 138.211C86.7279 137.593 85.8713 137.238 84.998 137.238C84.1248 137.238 83.2682 137.593 82.6509 138.211C82.0333 138.829 81.6777 139.685 81.6777 140.559C81.6777 141.432 82.033 142.288 82.6509 142.906C83.2682 143.523 84.1248 143.879 84.998 143.879C85.8713 143.879 86.7279 143.524 87.3455 142.906C87.9664 142.285 88.3183 141.432 88.3183 140.559C88.3183 139.685 87.9664 138.829 87.3455 138.211Z" fill="#150320"/>
<path d="M162.031 86.8783V44.1603C162.031 42.9531 161.375 41.8411 160.32 41.256L86.6087 0.416363C85.607 -0.138791 84.3911 -0.138459 83.3903 0.416363L9.6797 41.256C8.62385 41.8411 7.96875 42.9531 7.96875 44.1603V125.84C7.96875 127.047 8.62418 128.159 9.6797 128.744L46.553 149.174C46.5583 149.177 46.5632 149.179 46.5682 149.182L83.3903 169.584C83.891 169.861 84.4452 170 84.9997 170C85.5539 170 86.1083 169.861 86.609 169.584L123.432 149.182C123.437 149.18 123.441 149.177 123.445 149.175L160.32 128.744C161.376 128.159 162.031 127.047 162.031 125.84V86.8929C162.031 86.8876 162.031 86.8829 162.031 86.8783ZM84.9994 7.1164L115.957 24.2684L85.7308 40.7763L55.3527 23.5422L84.9994 7.1164ZM55.0044 65.1237L85.6694 48.3761L115.502 65.3003L85.0206 82.1887L55.0044 65.1237ZM81.6791 87.9278V121.451L51.4643 104.31V70.7499L81.6791 87.9278ZM44.8237 140.624L14.609 123.883V91.0353L44.8237 108.177V140.624ZM44.8237 100.542L14.609 83.4009V49.7969L44.8237 66.9747V100.542ZM18.1352 44.1626L48.5445 27.3144L78.8741 44.5209L48.2164 61.2645L18.1352 44.1626ZM118.534 144.303L88.3197 161.043V151.303C88.3197 149.47 86.8328 147.983 84.9994 147.983C83.1659 147.983 81.6791 149.47 81.6791 151.303V161.043L51.4643 144.303V111.944L83.3608 130.04C83.8685 130.328 84.4336 130.472 84.9994 130.472C85.5469 130.472 86.0947 130.337 86.5908 130.066L118.534 112.62V144.303ZM118.534 105.054L88.3197 121.556V87.9521L118.534 71.2115V105.054ZM122.31 61.5278L92.5262 44.6308L122.834 28.0781L152.758 44.658L122.31 61.5278ZM155.39 123.883L125.175 140.624V108.993L155.39 92.4916V123.883ZM155.39 84.9253L125.175 101.427V67.5322L155.39 50.7916V84.9253Z" fill="#621C97"/>
<path d="M187.976 95.44C187.976 91.28 188.712 87.184 190.184 83.152C191.72 79.056 193.928 75.408 196.808 72.208C199.688 69.008 203.208 66.416 207.368 64.432C211.528 62.448 216.264 61.456 221.576 61.456C227.848 61.456 233.256 62.832 237.8 65.584C242.408 68.336 245.832 71.92 248.072 76.336L237.896 83.344C237 81.424 235.912 79.824 234.632 78.544C233.352 77.2 231.976 76.144 230.504 75.376C229.032 74.608 227.496 74.064 225.896 73.744C224.296 73.36 222.728 73.168 221.192 73.168C217.864 73.168 214.952 73.84 212.456 75.184C210.024 76.528 207.976 78.288 206.312 80.464C204.712 82.576 203.496 85.008 202.664 87.76C201.832 90.448 201.416 93.136 201.416 95.824C201.416 98.832 201.896 101.744 202.856 104.56C203.816 107.312 205.16 109.744 206.888 111.856C208.68 113.968 210.792 115.664 213.224 116.944C215.72 118.224 218.44 118.864 221.384 118.864C222.92 118.864 224.52 118.672 226.184 118.288C227.848 117.904 229.416 117.296 230.888 116.464C232.424 115.632 233.832 114.576 235.112 113.296C236.392 111.952 237.416 110.352 238.184 108.496L249.032 114.736C247.944 117.296 246.376 119.568 244.328 121.552C242.344 123.472 240.072 125.104 237.512 126.448C235.016 127.792 232.328 128.816 229.448 129.52C226.568 130.224 223.752 130.576 221 130.576C216.136 130.576 211.688 129.552 207.656 127.504C203.624 125.456 200.136 122.8 197.192 119.536C194.312 116.208 192.04 112.464 190.376 108.304C188.776 104.08 187.976 99.792 187.976 95.44ZM272.029 130.96C266.845 130.96 262.909 129.296 260.221 125.968C257.533 122.64 256.189 117.712 256.189 111.184V79.696H269.053V108.4C269.053 116.144 271.837 120.016 277.405 120.016C279.901 120.016 282.301 119.28 284.605 117.808C286.973 116.272 288.893 113.968 290.365 110.896V79.696H303.229V115.216C303.229 116.56 303.453 117.52 303.901 118.096C304.413 118.672 305.213 118.992 306.301 119.056V130C305.021 130.256 303.933 130.416 303.037 130.48C302.205 130.544 301.437 130.576 300.733 130.576C298.429 130.576 296.541 130.064 295.069 129.04C293.661 127.952 292.829 126.48 292.573 124.624L292.285 120.592C290.045 124.048 287.165 126.64 283.645 128.368C280.125 130.096 276.253 130.96 272.029 130.96ZM344.62 130.96C340.78 130.96 337.356 130.096 334.348 128.368C331.34 126.64 328.972 124.272 327.244 121.264V130H316.012V59.92H328.876V88.528C330.668 85.456 333.004 83.088 335.884 81.424C338.828 79.696 342.252 78.832 346.156 78.832C349.42 78.832 352.396 79.536 355.084 80.944C357.772 82.352 360.076 84.24 361.996 86.608C363.98 88.976 365.484 91.76 366.508 94.96C367.596 98.16 368.14 101.52 368.14 105.04C368.14 108.688 367.532 112.08 366.316 115.216C365.164 118.352 363.532 121.104 361.42 123.472C359.308 125.776 356.812 127.6 353.932 128.944C351.052 130.288 347.948 130.96 344.62 130.96ZM341.068 120.016C343.116 120.016 345.004 119.632 346.732 118.864C348.46 118.032 349.932 116.944 351.148 115.6C352.364 114.256 353.292 112.688 353.932 110.896C354.636 109.104 354.988 107.184 354.988 105.136C354.988 103.088 354.668 101.136 354.028 99.28C353.388 97.424 352.46 95.792 351.244 94.384C350.092 92.976 348.716 91.856 347.116 91.024C345.516 90.192 343.756 89.776 341.836 89.776C338.956 89.776 336.364 90.736 334.06 92.656C331.82 94.512 330.092 96.816 328.876 99.568V111.568C329.324 112.848 329.964 114 330.796 115.024C331.692 116.048 332.684 116.944 333.772 117.712C334.86 118.416 336.044 118.992 337.324 119.44C338.604 119.824 339.852 120.016 341.068 120.016ZM400.088 130.96C395.992 130.96 392.312 130.256 389.048 128.848C385.784 127.44 383 125.552 380.696 123.184C378.456 120.752 376.728 117.968 375.512 114.832C374.296 111.696 373.688 108.4 373.688 104.944C373.688 101.424 374.296 98.096 375.512 94.96C376.728 91.824 378.456 89.072 380.696 86.704C383 84.272 385.784 82.352 389.048 80.944C392.312 79.536 395.992 78.832 400.088 78.832C404.184 78.832 407.832 79.536 411.032 80.944C414.296 82.352 417.048 84.272 419.288 86.704C421.592 89.072 423.352 91.824 424.568 94.96C425.784 98.096 426.392 101.424 426.392 104.944C426.392 108.4 425.784 111.696 424.568 114.832C423.352 117.968 421.624 120.752 419.384 123.184C417.144 125.552 414.392 127.44 411.128 128.848C407.864 130.256 404.184 130.96 400.088 130.96ZM386.936 104.944C386.936 107.184 387.256 109.232 387.896 111.088C388.6 112.88 389.528 114.448 390.68 115.792C391.896 117.136 393.304 118.192 394.904 118.96C396.504 119.664 398.232 120.016 400.088 120.016C401.944 120.016 403.672 119.664 405.272 118.96C406.872 118.192 408.248 117.136 409.4 115.792C410.616 114.448 411.544 112.848 412.184 110.992C412.888 109.136 413.24 107.088 413.24 104.848C413.24 102.672 412.888 100.656 412.184 98.8C411.544 96.944 410.616 95.344 409.4 94C408.248 92.656 406.872 91.632 405.272 90.928C403.672 90.16 401.944 89.776 400.088 89.776C398.232 89.776 396.504 90.16 394.904 90.928C393.304 91.696 391.896 92.752 390.68 94.096C389.528 95.44 388.6 97.04 387.896 98.896C387.256 100.752 386.936 102.768 386.936 104.944ZM454.083 130.96C449.859 130.96 445.731 130.288 441.699 128.944C437.667 127.6 434.211 125.68 431.331 123.184L436.131 115.12C439.203 117.296 442.179 118.96 445.059 120.112C448.003 121.2 450.915 121.744 453.795 121.744C456.355 121.744 458.371 121.264 459.843 120.304C461.315 119.344 462.051 117.968 462.051 116.176C462.051 114.384 461.187 113.072 459.459 112.24C457.731 111.408 454.915 110.448 451.011 109.36C447.747 108.464 444.963 107.6 442.659 106.768C440.355 105.936 438.499 105.008 437.091 103.984C435.683 102.896 434.659 101.68 434.019 100.336C433.379 98.928 433.059 97.264 433.059 95.344C433.059 92.784 433.539 90.48 434.499 88.432C435.523 86.384 436.931 84.656 438.723 83.248C440.515 81.776 442.595 80.656 444.963 79.888C447.395 79.12 450.019 78.736 452.835 78.736C456.611 78.736 460.131 79.28 463.395 80.368C466.723 81.456 469.763 83.216 472.515 85.648L467.331 93.424C464.771 91.504 462.275 90.096 459.843 89.2C457.475 88.304 455.107 87.856 452.739 87.856C450.563 87.856 448.739 88.304 447.267 89.2C445.795 90.096 445.059 91.536 445.059 93.52C445.059 94.416 445.219 95.152 445.539 95.728C445.923 96.304 446.499 96.816 447.267 97.264C448.035 97.712 449.027 98.16 450.243 98.608C451.523 98.992 453.091 99.408 454.947 99.856C458.403 100.752 461.347 101.648 463.779 102.544C466.275 103.44 468.291 104.464 469.827 105.616C471.427 106.768 472.579 108.112 473.283 109.648C474.051 111.12 474.435 112.912 474.435 115.024C474.435 119.952 472.611 123.856 468.963 126.736C465.315 129.552 460.355 130.96 454.083 130.96Z" fill="#150320"/>
</svg>
