<?xml version="1.0" encoding="iso-8859-1"?>
<!-- Generator: Adobe Illustrator 19.0.0, SVG Export Plug-In . SVG Version: 6.00 Build 0)  -->
<svg version="1.1" id="Layer_1" xmlns="http://www.w3.org/2000/svg" xmlns:xlink="http://www.w3.org/1999/xlink" x="0px" y="0px"
	 viewBox="0 0 512 512" style="enable-background:new 0 0 512 512;" xml:space="preserve">
	<g>
		<g>
			<path d="M511.64,99.757c-0.069-0.243-0.174-0.462-0.264-0.696c-0.188-0.499-0.423-0.979-0.701-1.434
				c-0.147-0.237-0.299-0.458-0.469-0.68c-0.323-0.417-0.685-0.802-1.081-1.152c-0.194-0.174-0.368-0.357-0.579-0.513
				c-0.084-0.063-0.147-0.147-0.234-0.207c-0.587-0.404-1.223-0.733-1.892-0.979l-85.6-32.48c-0.208-0.083-0.425-0.15-0.646-0.217
				L262.059,1.409c-3.901-1.479-8.208-1.479-12.108,0L89.567,62.234c-0.234,0.066-0.465,0.144-0.692,0.233L5.535,94.114l-0.026,0.01
				l-0.005,0.002l-0.015,0.009c-0.636,0.241-1.241,0.558-1.802,0.942c-0.092,0.064-0.158,0.152-0.247,0.219
				c-0.195,0.146-0.357,0.316-0.538,0.477c-0.413,0.362-0.79,0.764-1.124,1.199c-0.159,0.209-0.304,0.42-0.443,0.643
				c-0.287,0.466-0.528,0.959-0.72,1.471c-0.086,0.226-0.188,0.437-0.255,0.67c-0.23,0.761-0.351,1.551-0.361,2.346v307.2
				c-0.001,3.545,2.192,6.721,5.508,7.975l170.264,64.583c0.094,0.041,0.188,0.07,0.284,0.108l76.919,29.176
				c0.072,0.028,0.152,0.016,0.224,0.042c1.803,0.689,3.798,0.689,5.601,0c0.073-0.026,0.152-0.014,0.225-0.042l76.919-29.176
				c0.096-0.038,0.19-0.067,0.284-0.108l170.264-64.583c3.316-1.254,5.509-4.43,5.508-7.975v-307.2
				C511.99,101.306,511.869,100.518,511.64,99.757z M394.693,69.983l-61.556,23.554l-54.503-20.781l61.533-23.461L394.693,69.983z
				M309.227,102.686l-54.572,20.882l-54.538-20.874l54.564-20.805L309.227,102.686z M255.996,17.359l60.155,22.824l-61.473,23.439
				l-60.17-22.941L255.996,17.359z M170.491,49.79l60.233,22.965l-54.517,20.787l-60.26-23.064L170.491,49.79z M85.333,429.303
				l-68.267-25.894v-84.533l68.267,26.129V429.303z M85.333,326.737l-68.267-26.129v-84.133l68.267,26.129V326.737z M85.333,224.337
				l-68.267-26.129V114.46l32.24,12.229l36.026,13.666V224.337z M32.583,102.092l59.357-22.535l60.357,23.102L93.34,125.14
				L32.583,102.092z M170.667,461.67L102.4,435.776v-84.24l68.267,26.129V461.67z M170.667,359.398L102.4,333.268v-84.132
				l68.267,26.129V359.398z M170.667,256.998L102.4,230.869v-84.039l68.267,25.896V256.998z M172.285,155.086l-54.93-20.837
				l58.852-22.439l54.581,20.891L172.285,155.086z M247.467,490.801l-59.733-22.657v-83.946l59.733,22.862V490.801z M247.467,388.792
				l-59.733-22.862v-84.132l59.733,22.862V388.792z M247.467,286.392l-59.733-22.863V179.2l59.733,22.659V286.392z M256,186.842
				l-59.725-22.656l58.393-22.346l59.726,22.86L256,186.842z M324.267,468.143l-59.733,22.657v-83.74l59.733-22.862V468.143z
				M324.267,365.93l-59.733,22.863v-84.132l59.733-22.862V365.93z M324.267,263.53l-59.733,22.863v-84.533l59.733-22.65V263.53z
				M278.534,132.707l54.615-20.901l60.202,22.954l-54.982,20.849L278.534,132.707z M409.6,435.776l-68.267,25.893v-84.004
				l68.267-26.128V435.776z M409.6,333.268l-68.267,26.129v-84.132l68.267-26.128V333.268z M409.6,230.869l-68.267,26.129v-84.26
				l68.267-25.886V230.869z M357.059,102.657l61.644-23.59l60.725,23.042l-62.012,23.561L357.059,102.657z M494.933,403.409
				l-68.267,25.894v-84.297l68.267-26.128V403.409z M494.933,300.609l-68.267,26.129v-84.132l68.267-26.128V300.609z
				M494.933,198.208l-68.267,26.129v-83.929l68.267-25.933V198.208z"/>
		</g>
	</g>
</svg>
